<svg xmlns="http://www.w3.org/2000/svg" width="142.38" height="24.27" viewBox="0 0 142.38 24.27">
  <path id="Path_1636" data-name="Path 1636" d="M25.71-21.06V0H20.58V-12.63L15.87,0H11.73L6.99-12.66V0H1.86V-21.06H7.92L13.83-6.48l5.85-14.58ZM45.18-8.64a13.1,13.1,0,0,1-.09,1.5H33.48a3.488,3.488,0,0,0,1.005,2.385,3.07,3.07,0,0,0,2.175.825,2.7,2.7,0,0,0,2.67-1.62h5.46a7.492,7.492,0,0,1-1.515,2.97A7.585,7.585,0,0,1,40.53-.51a8.817,8.817,0,0,1-3.69.75A8.979,8.979,0,0,1,32.46-.81a7.469,7.469,0,0,1-3-3,9.262,9.262,0,0,1-1.08-4.56,9.367,9.367,0,0,1,1.065-4.56,7.372,7.372,0,0,1,2.985-3,9.042,9.042,0,0,1,4.41-1.05,8.952,8.952,0,0,1,4.32,1.02,7.324,7.324,0,0,1,2.955,2.91A8.833,8.833,0,0,1,45.18-8.64ZM39.93-9.99a2.638,2.638,0,0,0-.9-2.1,3.313,3.313,0,0,0-2.25-.78,3.249,3.249,0,0,0-2.175.75,3.331,3.331,0,0,0-1.1,2.13ZM46.86-8.4a10,10,0,0,1,.975-4.53,7.273,7.273,0,0,1,2.655-3,6.931,6.931,0,0,1,3.75-1.05,6.587,6.587,0,0,1,3.015.69A5.494,5.494,0,0,1,59.4-14.43V-22.2h5.13V0H59.4V-2.4A5.226,5.226,0,0,1,57.345-.48a6.442,6.442,0,0,1-3.1.72A6.859,6.859,0,0,1,50.49-.825a7.359,7.359,0,0,1-2.655-3.03A10.1,10.1,0,0,1,46.86-8.4Zm12.54.03a4.194,4.194,0,0,0-1.065-3.03,3.46,3.46,0,0,0-2.6-1.11,3.483,3.483,0,0,0-2.6,1.1A4.141,4.141,0,0,0,52.08-8.4a4.248,4.248,0,0,0,1.065,3.045,3.438,3.438,0,0,0,2.6,1.125,3.46,3.46,0,0,0,2.6-1.11A4.194,4.194,0,0,0,59.4-8.37ZM70.83-18.48a3.109,3.109,0,0,1-2.205-.8,2.576,2.576,0,0,1-.855-1.965,2.61,2.61,0,0,1,.855-2,3.109,3.109,0,0,1,2.205-.8,3.068,3.068,0,0,1,2.175.8,2.61,2.61,0,0,1,.855,2A2.576,2.576,0,0,1,73-19.275,3.068,3.068,0,0,1,70.83-18.48Zm2.55,1.74V0H68.25V-16.74Zm2.7,8.37a9.367,9.367,0,0,1,1.065-4.56,7.4,7.4,0,0,1,2.97-3,8.893,8.893,0,0,1,4.365-1.05,8.3,8.3,0,0,1,5.265,1.65,7.785,7.785,0,0,1,2.775,4.65H87.06a2.628,2.628,0,0,0-2.67-1.92,2.691,2.691,0,0,0-2.25,1.1A5.066,5.066,0,0,0,81.3-8.37a5.066,5.066,0,0,0,.84,3.135A2.691,2.691,0,0,0,84.39-4.14a2.628,2.628,0,0,0,2.67-1.92h5.46a7.859,7.859,0,0,1-2.79,4.62A8.215,8.215,0,0,1,84.48.24,8.893,8.893,0,0,1,80.115-.81a7.4,7.4,0,0,1-2.97-3A9.367,9.367,0,0,1,76.08-8.37ZM94.23-8.4a10,10,0,0,1,.975-4.53,7.273,7.273,0,0,1,2.655-3,6.931,6.931,0,0,1,3.75-1.05,6.442,6.442,0,0,1,3.1.72,5.3,5.3,0,0,1,2.055,1.89v-2.37h5.13V0h-5.13V-2.37a5.54,5.54,0,0,1-2.085,1.89,6.442,6.442,0,0,1-3.1.72A6.807,6.807,0,0,1,97.86-.825a7.359,7.359,0,0,1-2.655-3.03A10.1,10.1,0,0,1,94.23-8.4Zm12.54.03a4.194,4.194,0,0,0-1.065-3.03,3.46,3.46,0,0,0-2.6-1.11,3.483,3.483,0,0,0-2.6,1.1A4.141,4.141,0,0,0,99.45-8.4a4.248,4.248,0,0,0,1.065,3.045,3.438,3.438,0,0,0,2.6,1.125,3.46,3.46,0,0,0,2.6-1.11A4.194,4.194,0,0,0,106.77-8.37Zm13.98-5.58A6.767,6.767,0,0,1,123-16.125a5.8,5.8,0,0,1,3-.8v5.43h-1.41a4.322,4.322,0,0,0-2.88.825,3.665,3.665,0,0,0-.96,2.895V0h-5.13V-16.74h5.13Zm23.49,5.31a13.1,13.1,0,0,1-.09,1.5H132.54a3.488,3.488,0,0,0,1.005,2.385,3.07,3.07,0,0,0,2.175.825,2.7,2.7,0,0,0,2.67-1.62h5.46a7.492,7.492,0,0,1-1.515,2.97A7.585,7.585,0,0,1,139.59-.51a8.817,8.817,0,0,1-3.69.75,8.979,8.979,0,0,1-4.38-1.05,7.469,7.469,0,0,1-3-3,9.262,9.262,0,0,1-1.08-4.56,9.367,9.367,0,0,1,1.065-4.56,7.372,7.372,0,0,1,2.985-3,9.042,9.042,0,0,1,4.41-1.05,8.952,8.952,0,0,1,4.32,1.02,7.324,7.324,0,0,1,2.955,2.91A8.833,8.833,0,0,1,144.24-8.64Zm-5.25-1.35a2.638,2.638,0,0,0-.9-2.1,3.313,3.313,0,0,0-2.25-.78,3.249,3.249,0,0,0-2.175.75,3.331,3.331,0,0,0-1.1,2.13Z" transform="translate(-1.86 24.03)" fill="#005875"/>
</svg>
